<svg xmlns="http://www.w3.org/2000/svg" viewBox="0 0 64 64" id="croissant">
  <path fill="#fff" d="M35.39368,17.93187a8.3835,8.3835,0,0,1,5.47991,2.57639c.32718.3603,2.68719,3.03045,1.88836,5.611a1.87149,1.87149,0,0,1-.39954.82791c-1.79917,1.92924-8.388-1.81061-8.388-1.81061Z"></path>
  <path fill="#fff" d="M36.83456,26.01333a12.25117,12.25117,0,0,1-3.32641,0A4.23439,4.23439,0,0,1,30.502,22.923a16.29669,16.29669,0,0,1,0-4.158,4.23434,4.23434,0,0,1,3.00614-3.09031,12.24715,12.24715,0,0,1,3.32641,0A4.23449,4.23449,0,0,1,39.8407,18.765a16.29578,16.29578,0,0,1,0,4.158A4.23392,4.23392,0,0,1,36.83456,26.01333Z"></path>
  <path fill="#fff" d="M29.90417,25.98645a62.23861,62.23861,0,0,1-6.73569-2.80738c-1.469-.71974-2.552-2.24062-2.16944-3.48911a89.39691,89.39691,0,0,1,3.26774-8.47843c.65894-1.49977,2.13386-2.5852,3.4067-2.15641a62.24175,62.24175,0,0,1,6.7357,2.80739c1.469.71971,2.552,2.24079,2.16945,3.48911a89.40142,89.40142,0,0,1-3.26777,8.47843C32.652,25.32969,31.177,26.41543,29.90417,25.98645Z"></path>
  <path fill="#f39600" d="M10.5185,17.93187a8.3835,8.3835,0,0,0-5.47991,2.57639c-.32718.3603-2.68719,3.03045-1.88837,5.611a1.87171,1.87171,0,0,0,.39954.82791c1.79917,1.92924,8.38805-1.81061,8.38805-1.81061Z"></path>
  <path fill="#fff" d="M9.07762,26.01333a12.25109,12.25109,0,0,0,3.3264,0A4.23437,4.23437,0,0,0,15.41016,22.923a16.29578,16.29578,0,0,0,0-4.158A4.23432,4.23432,0,0,0,12.404,15.67471a12.24708,12.24708,0,0,0-3.3264,0A4.23449,4.23449,0,0,0,6.07148,18.765a16.29578,16.29578,0,0,0,0,4.158A4.23389,4.23389,0,0,0,9.07762,26.01333Z"></path>
  <path fill="#fff" d="M16.008,25.98645a62.23955,62.23955,0,0,0,6.7357-2.80738c1.469-.71974,2.552-2.24062,2.16943-3.48911a89.39148,89.39148,0,0,0-3.26774-8.47843c-.65894-1.49977-2.13386-2.5852-3.4067-2.15641A62.24081,62.24081,0,0,0,11.503,11.86251c-1.469.71971-2.552,2.24079-2.16945,3.48911a89.40388,89.40388,0,0,0,3.26776,8.47843C13.26014,25.32969,14.73513,26.41543,16.008,25.98645Z"></path>
  <path fill="#f39600" d="M26.70983 26.246a15.32182 15.32182 0 01-7.48441 0 4.78047 4.78047 0 01-2.98784-3.31976 36.00466 36.00466 0 010-11.64241A4.78034 4.78034 0 0119.22542 7.964a15.32158 15.32158 0 017.48441 0 4.78057 4.78057 0 012.98784 3.31975 36.00523 36.00523 0 010 11.64241A4.78109 4.78109 0 0126.70983 26.246zM52.33862 32.97239A9.65559 9.65559 0 0158.65 35.9397c.37683.415 3.09492 3.49026 2.17489 6.46238a2.15568 2.15568 0 01-.46016.95354c-2.07216 2.22195-9.66076-2.08534-9.66076-2.08534z"></path>
  <path fill="#fff" d="M53.99812,42.28006a14.10968,14.10968,0,0,1-3.83112,0,4.87685,4.87685,0,0,1-3.46226-3.5592,18.76836,18.76836,0,0,1,0-4.7889,4.8768,4.8768,0,0,1,3.46226-3.5592,14.10567,14.10567,0,0,1,3.83112,0,4.877,4.877,0,0,1,3.46226,3.5592,18.76836,18.76836,0,0,1,0,4.7889A4.87634,4.87634,0,0,1,53.99812,42.28006Z"></path>
  <path fill="#fff" d="M46.01619 42.24911a71.68311 71.68311 0 01-7.7577-3.23336c-1.69187-.82894-2.93919-2.58058-2.49861-4.0185a102.95784 102.95784 0 013.76356-9.76487c.75892-1.72732 2.45763-2.97745 3.9236-2.4836a71.68311 71.68311 0 017.7577 3.23336c1.69194.82891 2.93923 2.58078 2.49862 4.0185a102.9692 102.9692 0 01-3.76358 9.76487C49.181 41.49269 47.48219 42.74317 46.01619 42.24911zM23.68912 32.97239a9.65559 9.65559 0 00-6.31137 2.96731c-.37683.415-3.09492 3.49026-2.17489 6.46238a2.15568 2.15568 0 00.46016.95354c2.07216 2.22195 9.66076-2.08534 9.66076-2.08534z"></path>
  <path fill="#fff" d="M30.01155,42.24911a71.68311,71.68311,0,0,0,7.7577-3.23336c1.69187-.82894,2.93919-2.58058,2.49861-4.0185a102.95784,102.95784,0,0,0-3.76356-9.76487c-.75892-1.72732-2.45763-2.97745-3.9236-2.4836a71.68311,71.68311,0,0,0-7.7577,3.23336c-1.69194.82891-2.93923,2.58078-2.49862,4.0185A102.96673,102.96673,0,0,0,26.088,39.76551C26.84675,41.49269,28.54555,42.74317,30.01155,42.24911Z"></path>
  <path fill="#f39600" d="M42.33716 42.548a17.64645 17.64645 0 01-8.62 0A5.50581 5.50581 0 0130.276 38.72451a41.46778 41.46778 0 010-13.40891 5.5057 5.5057 0 013.44119-3.82347 17.64669 17.64669 0 018.62 0 5.50593 5.50593 0 013.44119 3.82347 41.46778 41.46778 0 010 13.40891A5.50649 5.50649 0 0142.33716 42.548zM41.9562 44.99432a10.08116 10.08116 0 016.58959 3.09811c.39344.43327 3.23135 3.64412 2.27076 6.74725a2.25062 2.25062 0 01-.48045.99557C48.1726 58.15515 40.24948 53.658 40.24948 53.658z"></path>
  <path fill="#fff" d="M43.68886,54.71228a14.73229,14.73229,0,0,1-4,0A5.09186,5.09186,0,0,1,36.074,50.99619a19.59607,19.59607,0,0,1,0-5,5.0918,5.0918,0,0,1,3.61489-3.7161,14.72748,14.72748,0,0,1,4,0,5.092,5.092,0,0,1,3.61488,3.7161,19.59607,19.59607,0,0,1,0,5A5.09129,5.09129,0,0,1,43.68886,54.71228Z"></path>
  <path fill="#fff" d="M43.38,41.89a107.01837,107.01837,0,0,1-3.93,10.2c-.79,1.8-2.56,3.11-4.09,2.59a72.71,72.71,0,0,1-8.1-3.38,4.86967,4.86967,0,0,1-2.6-2.87A2.28449,2.28449,0,0,1,24.65,47.11a104.38234,104.38234,0,0,1,3.93-10.2c.79-1.8,2.56-3.11,4.09-2.59a67.36917,67.36917,0,0,1,7.59,3.15c.17.07.34.15.51.23C42.54,38.56,43.84,40.39,43.38,41.89Z"></path>
  <path fill="#fff" d="M40.27,38.78a108.60633,108.60633,0,0,1-3.93,10.19c-.79,1.81-2.57,3.11-4.1,2.6a71.04561,71.04561,0,0,1-7.58-3.14A2.28449,2.28449,0,0,1,24.65,47.11a104.38234,104.38234,0,0,1,3.93-10.2c.79-1.8,2.56-3.11,4.09-2.59a67.36917,67.36917,0,0,1,7.59,3.15A2.25,2.25,0,0,1,40.27,38.78Z"></path>
  <path fill="#f39600" d="M12.0438,44.99432a10.08116,10.08116,0,0,0-6.58959,3.09811c-.39344.43327-3.23135,3.64412-2.27076,6.74725a2.25062,2.25062,0,0,0,.48045.99557C5.8274,58.15515,13.75052,53.658,13.75052,53.658Z"></path>
  <path fill="#fff" d="M10.31114,54.71228a14.73229,14.73229,0,0,0,4,0A5.09186,5.09186,0,0,0,17.926,50.99619a19.59607,19.59607,0,0,0,0-5,5.0918,5.0918,0,0,0-3.61489-3.7161,14.72748,14.72748,0,0,0-4,0,5.092,5.092,0,0,0-3.61488,3.7161,19.59607,19.59607,0,0,0,0,5A5.09129,5.09129,0,0,0,10.31114,54.71228Z"></path>
  <path fill="#fff" d="M18.64493,54.68a74.8442,74.8442,0,0,0,8.09967-3.37588c1.76645-.86548,3.06875-2.69434,2.60875-4.19565a107.49979,107.49979,0,0,0-3.92946-10.19531c-.79237-1.80347-2.566-3.10871-4.09656-2.59308a74.8442,74.8442,0,0,0-8.09967,3.37588c-1.76652.86545-3.0688,2.69455-2.60876,4.19565a107.506,107.506,0,0,0,3.92949,10.19531C15.34062,53.8902,17.1143,55.1958,18.64493,54.68Z"></path>
  <path fill="#f39600" d="M31.51387,54.992a18.4244,18.4244,0,0,1-9,0A5.74853,5.74853,0,0,1,18.921,51a43.29613,43.29613,0,0,1,0-14,5.74838,5.74838,0,0,1,3.59288-3.992,18.4244,18.4244,0,0,1,9,0A5.74864,5.74864,0,0,1,35.10675,37a43.29613,43.29613,0,0,1,0,14A5.74922,5.74922,0,0,1,31.51387,54.992Z"></path>
  <path fill="#333" d="M2.82031,27.75654c2.1088,1.72875,4.44255.62028,7.387-.52974a6.85386,6.85386,0,0,0,3.5095-.52311c1.22319.82568,2.58668.46844,3.836-.08423.90758.62112,3.05707,1.68221,3.49117.11082.15739-1.00117-.79707-1.18992-1.55085-1.3223a3.8161,3.8161,0,0,1-2.26558-2.51521,35.26669,35.26669,0,0,1-.00293-11.314c.99711-3.75256,6.29312-3.11133,9.2246-2.53093a3.92009,3.92009,0,0,1,2.26365,2.51289,36.09989,36.09989,0,0,1,.32718,8.812.99542.99542,0,0,0,.957.99414,1.01353,1.01353,0,0,0,1.03906-.91748,37.65309,37.65309,0,0,0-.32727-9.03338c1.55783.80015,5.58878,1.81139,4.82442,4.05584-.0771.958-1.73338,3.03709-.24631,3.69628,1.3214.45187,1.52882-1.40508,1.86629-2.21044a3.69655,3.69655,0,0,1,1.54889,1.6128.99918.99918,0,0,0,.90918.582c2.67513-.59908-.7295-3.835-1.95691-4.15308-.15838-3.94492-5.48041-4.93708-8.29614-6.27939a5.28283,5.28283,0,0,0-2.41-1.60855,16.57662,16.57662,0,0,0-7.98047.00635,5.21387,5.21387,0,0,0-2.395,1.59412c-2.86474,1.3813-8.13244,2.31128-8.31744,6.28082a5.20265,5.20265,0,0,0-3.22516,4.27C3.69757,20.27368.46333,24.54059,2.82031,27.75654ZM11.917,12.89131c1.099-.50464,2.21619-1.01337,3.31238-1.48273a37.31072,37.31072,0,0,0,.02649,11.82062,4.89257,4.89257,0,0,0,.77924,1.81195c-1.114.65448-2.36007-.77511-2.77041-2.08839a82.59891,82.59891,0,0,1-2.97758-7.77092C10.07715,14.49043,10.84961,13.41523,11.917,12.89131ZM8.7597,16.93818A68.21311,68.21311,0,0,0,12.13123,25.151a11.2535,11.2535,0,0,1-2.88807-.00525,3.24977,3.24977,0,0,1-2.18164-2.23291C6.87277,20.81423,6.50263,18.06945,8.7597,16.93818ZM4.99664,22.32234a4.97345,4.97345,0,0,0,2.108,3.95129c-1.73584.5174-2.58508.37238-2.81457.12647C3.55841,25.13891,4.29833,23.30884,4.99664,22.32234Z"></path>
  <path fill="#333" d="M58.50916,34.55287A5.75467,5.75467,0,0,0,54.782,29.67939c-.07969-4.54174-6.16094-5.6004-9.47957-7.20693a5.86214,5.86214,0,0,0-2.72337-1.83018,18.79263,18.79263,0,0,0-9.12109.00538,5.79521,5.79521,0,0,0-2.67877,1.80413c-3.45469,1.63251-10.3725,2.99527-9.41709,7.93744a1.00019,1.00019,0,0,0,1.91615-.57317c-.30213-2.61253,4.01884-3.58955,6.04018-4.62867a38.71174,38.71174,0,0,0-.507,4.51983.99961.99961,0,1,0,1.99611.11133c.26795-1.98821-.05227-4.15194,1.3182-5.88479A4.03027,4.03027,0,0,1,33.96,22.58369a16.78188,16.78188,0,0,1,8.11914-.00537,4.58487,4.58487,0,0,1,2.71384,3.02444,40.58153,40.58153,0,0,1,.01954,12.95163.99991.99991,0,1,0,1.97463.31641,42.337,42.337,0,0,0-.03772-13.66449c1.95455.98339,6.33761,2.04885,5.99193,4.63418a88.7372,88.7372,0,0,1-3.32335,8.711,5.14029,5.14029,0,0,1-1.65825,2.52682,1,1,0,0,0,.819,1.77812,7.58843,7.58843,0,0,0,4.14123.65148c3.28666,1.295,6.07376,2.58219,8.36314.6664C63.73776,40.46651,60.06005,35.73606,58.50916,34.55287Zm-8.289,6.82879a68.52747,68.52747,0,0,0,4.04718-9.76959c2.85795,1.25542,2.41791,4.55454,2.20433,7.07567a3.91186,3.91186,0,0,1-2.6035,2.72359A12.34736,12.34736,0,0,1,50.22015,41.38166Zm9.64215.85437c-.21882,1.18821-1.54262,1.07284-3.92523.384a5.83062,5.83062,0,0,0,2.637-5.05689C59.32971,38.61555,60.39746,40.5074,59.8623,42.236Z"></path>
  <path fill="#333" d="M12.30078,55.967a7.03643,7.03643,0,0,0,3.60413-.68078c1.471,1.05125,3.11449.55215,4.62945-.09644,2.79572,2.01741,10.14167,2.01826,12.95081.0094,1.5145.645,3.14262,1.12817,4.60766.08539a7.94637,7.94637,0,0,0,4.27209.65935c3.42293,1.356,6.32962,2.69878,8.722.6835,2.54434-3.63546-.68019-8.30081-2.73044-9.96944a5.96475,5.96475,0,0,0-3.8985-5.07239c.00449-4.67529-6.6826-5.98233-9.86442-7.522a6.11086,6.11086,0,0,0-2.83968-1.90376,19.515,19.515,0,0,0-9.501.00537,6.05045,6.05045,0,0,0-2.80487,1.8819C16.062,35.67907,9.5774,36.8793,9.5412,41.58387A5.98491,5.98491,0,0,0,5.643,46.65858C3.59674,48.31314.34736,53.01823,2.9296,56.64531c2.34085,1.992,5.31682.64976,8.70381-.70055C11.85577,55.95393,12.07782,55.967,12.30078,55.967Zm37.56348-1.29785c-.13965.45557-.18067.52686-.25488.61084-.40729.43518-1.676.55237-3.99756-.20221a6.11731,6.11731,0,0,0,2.81793-5.42236C49.28882,50.81721,50.43689,52.82,49.86426,54.66914Zm-3.55567-8.415a18.425,18.425,0,0,1,.00293,4.71338A4.12782,4.12782,0,0,1,43.55664,53.842a12.016,12.016,0,0,1-3.87781-.05377,71.10523,71.10523,0,0,0,4.2616-10.27765A4.2095,4.2095,0,0,1,46.30859,46.2541ZM40.333,38.72236c1.39551.67774,2.373,2.07862,2.08887,3.00537A99.78347,99.78347,0,0,1,38.752,51.29316c-.63543,1.84815-2.23369,3.20795-3.71533,2.33435a5.92783,5.92783,0,0,0,1.05713-2.34411,43.72749,43.72749,0,0,0-.04175-14.481C37.40948,37.37764,38.82153,38.02082,40.333,38.72236Zm-17.5791-4.62109a17.50352,17.50352,0,0,1,8.499-.00537,4.75222,4.75222,0,0,1,2.86621,3.1875A42.43233,42.43233,0,0,1,34.12207,50.944a4.76168,4.76168,0,0,1-2.86035,3.20313,17.50369,17.50369,0,0,1-8.48731.00244,4.75782,4.75782,0,0,1-2.86621-3.1875A42.45752,42.45752,0,0,1,19.9043,37.302,4.76147,4.76147,0,0,1,22.75391,34.10127ZM13.65332,38.7292c1.42163-.66327,2.89075-1.33484,4.32837-1.94281A43.52521,43.52521,0,0,0,17.93746,51.302a5.87268,5.87268,0,0,0,1.04588,2.31732c-1.49123.88888-3.09854-.46463-3.73528-2.32621a99.63488,99.63488,0,0,1-3.67189-9.57314C11.294,40.801,12.27148,39.4001,13.65332,38.7292Zm-3.594,4.7793a71.30554,71.30554,0,0,0,4.26233,10.28363,12.23487,12.23487,0,0,1-3.85193.05333,4.1254,4.1254,0,0,1-2.77832-2.85308C7.41875,48.33253,7.05538,44.74387,10.05933,43.5085ZM4.40723,55.29805c-1.11438-1.77376.1967-4.43317,1.16357-5.64484a6.08162,6.08162,0,0,0,2.82227,5.4234C6.06921,55.83387,4.80231,55.71992,4.40723,55.29805Z"></path>
  <circle cx="31.511" cy="37.563" r="1.389" fill="#333"></circle>
  <circle cx="41.996" cy="26.023" r="1.389" fill="#333"></circle>
  <circle cx="32.559" cy="40.349" r=".717" fill="#333"></circle>
  <circle cx="39.974" cy="23.756" r=".717" fill="#333"></circle>
  <circle cx="27.013" cy="11.579" r=".925" fill="#333"></circle>
  <circle cx="25.667" cy="10.07" r=".477" fill="#333"></circle>
</svg>
