<svg xmlns="http://www.w3.org/2000/svg" fill-rule="evenodd" stroke-linejoin="round" stroke-miterlimit="2" clip-rule="evenodd" viewBox="0 0 128 128" id="hot-coffee">
  <path fill="none" d="M0 0h128v128H0z"></path>
  <path fill="#fff" d="M22.228 44.885c24.776 2.659 31.49.415 50.358.011 6.501-.139 11.788.68 16.005 1.896L85.4 76.126c-2.879 5.312-6.005 14.793-11.994 18.447-14.57 8.887-38.402 11.97-50.402-19.041l-.777-30.647Z"></path>
  <path fill="#463823" d="M55.043 103.569a2.21 2.21 0 0 1-.274.016 32.77 32.77 0 0 1-30.344-20.4c-4.116-10.212-6.6-23.434-4.963-38.52a2 2 0 0 1 1.988-1.784h66.64a2 2 0 0 1 1.99 1.784c1.636 15.087-.848 28.31-4.98 38.52a32.754 32.754 0 0 1-30.057 20.384Zm-2.01-2.986c-.078.091-.261.32-.261.988 0-.36.094-.696.26-.988Zm33.244-53.702H23.264c-1.183 13.588 1.125 25.512 4.867 34.8a28.766 28.766 0 0 0 26.42 17.901c.072-.007.147-.011.22-.011a28.753 28.753 0 0 0 26.623-17.89c3.759-9.29 6.066-21.213 4.883-34.8Z"></path>
  <path fill="#463823" d="M90.787 55.043c.58-.837 1.643-1.568 2.898-2.073 3.094-1.243 7.457-.976 9.923 3.457 2.256 4.057 1.695 8.854-.438 12.734-2.137 3.884-5.867 6.908-10.154 7.288-2.067.184-3.727-.615-5.057-1.29a1.999 1.999 0 1 0-1.81 3.567c1.89.96 4.283 1.97 7.221 1.708 5.576-.495 10.525-4.293 13.305-9.346 2.784-5.058 3.374-11.316.428-16.605-3.707-6.666-10.258-7.093-14.91-5.224-2.064.83-3.74 2.13-4.693 3.505a2 2 0 1 0 3.287 2.279Z"></path>
  <path fill="#ae7648" d="M69.894 75.014s1.447-10.765-12.66-15.058c-12.137-3.693-18.522 5.149-18.522 5.149s.313 11.734 11.921 15.23c15.084 4.544 19.261-5.321 19.261-5.321"></path>
  <path fill="#463823" d="m72 75.869-.002.006s-1.738 4.258-7.109 6.434c-3.306 1.34-8.082 1.924-14.82-.106-13.21-3.98-13.614-17.109-13.614-17.109-.015-.447.12-.886.385-1.247 0 0 7.152-9.961 20.959-5.76 6.333 1.927 9.849 5.032 11.832 8 2.945 4.408 2.58 8.657 2.517 9.205v.003l-.007.056-.001.007-.005.033-.008.049-.002.013-.002.009-.005.027-.01.042-.004.022-.003.013-.005.02-.009.032-.008.032-.007.02-.003.013-.007.021-.014.042-.01.025-.002.009-.005.013-.017.045-.013.031Zm-3.808-1.32c.03-.85-.051-3.492-1.887-6.24-1.61-2.41-4.53-4.831-9.67-6.395-9.096-2.768-14.569 2.102-16.113 3.767.31 2.392 1.974 10.063 10.701 12.692 5.531 1.667 9.45 1.328 12.165.229 3.014-1.222 4.406-3.34 4.804-4.052Z"></path>
  <path fill="#463823" d="M68.94 73.67c-1.076.583-3.524 1.167-7.61-.61-2.858-1.244-3.721-2.582-4.683-3.903-1.297-1.78-2.702-3.568-7.028-5.221-4.648-1.776-8.955-1.375-11.164-.958a2 2 0 0 0 .742 3.93c1.779-.335 5.25-.666 8.995.764 3.953 1.51 4.69 3.183 5.934 4.807 1.104 1.442 2.483 2.888 5.607 4.248 5.953 2.59 9.545 1.309 11.113.459a2 2 0 0 0-1.906-3.517Z"></path>
  <path fill="#ddd" d="M54.01 25.894c-.71 2.645-.39 4.264.05 5.653.39 1.254 1.01 2.2-.09 4.453-.49.991-.08 2.19.91 2.676.99.485 2.19.075 2.68-.915 1.29-2.624 1.21-4.243.86-5.672-.34-1.373-1.27-2.48-.54-5.152a2.012 2.012 0 0 0-1.41-2.453 2.008 2.008 0 0 0-2.46 1.41ZM37.01 25.894c-.71 2.645-.39 4.264.05 5.653.39 1.254 1.01 2.2-.09 4.453-.49.991-.08 2.19.91 2.676.99.485 2.19.075 2.68-.915 1.29-2.624 1.21-4.243.86-5.672-.34-1.373-1.27-2.48-.54-5.152a2.012 2.012 0 0 0-1.41-2.453 2.008 2.008 0 0 0-2.46 1.41ZM71.01 25.894c-.71 2.645-.39 4.264.05 5.653.39 1.254 1.01 2.2-.09 4.453-.49.991-.08 2.19.91 2.676.99.485 2.19.075 2.68-.915 1.29-2.624 1.21-4.243.86-5.672-.34-1.373-1.27-2.48-.54-5.152a2.012 2.012 0 0 0-1.41-2.453 2.008 2.008 0 0 0-2.46 1.41Z"></path>
</svg>
